<svg width="322" height="229" viewBox="0 0 322 229" fill="none" xmlns="http://www.w3.org/2000/svg">
<g opacity="0.07">
<g opacity="0.07">
<path opacity="0.07" d="M285.785 86.8073C289.822 94.2089 295.755 101.182 296.245 109.501C297.04 122.898 284.011 132.929 278.689 145.347C272.144 160.578 277.649 178.501 271.838 193.977C267.617 205.171 257.341 214.163 245.229 217.099C236.176 219.301 226.633 218.323 217.274 218.384C190.727 218.628 164.24 227.804 137.998 223.644C125.03 221.565 112.796 216.304 99.8283 214.652C84.23 212.634 66.0625 215.081 54.9296 204.498C39.3313 189.695 50.8924 162.474 39.2089 144.735C35.4164 138.985 29.3606 134.52 27.342 128.097C24.9564 120.512 28.8101 112.499 33.5813 106.015C38.3526 99.5919 44.286 93.6584 46.8552 86.1345C49.1796 79.3446 47.7727 71.9431 44.8977 65.3367C40.4935 55.1825 52.7886 31.938 77.2566 33.7119C88.4507 34.5071 93.5278 21.5391 105.823 17.9301C119.892 13.8317 137.57 17.1349 147.908 20.5604C158.429 24.0471 171.458 25.8822 177.514 16.9514C186.017 4.28923 211.463 2.33181 222.902 22.8849C227.062 30.3476 230.793 36.2199 239.663 35.6082C287.742 32.4885 279.729 75.8579 285.785 86.8073ZM154.698 17.5019C154.698 19.2147 154.698 22.1508 162.283 21.6615C164.607 21.5391 166.503 20.2546 166.503 18.5418C166.503 16.8291 164.607 15.4221 162.283 15.4221C159.958 15.4833 154.698 14.7493 154.698 17.5019ZM80.0092 25.8822C79.7645 26.0045 79.6422 26.2492 79.5199 26.4939C79.0305 27.2279 78.1741 27.7173 77.3178 28.0843C76.8284 28.2678 76.2779 28.4513 75.9109 28.8183C75.2992 29.43 75.3603 30.5311 76.0332 31.0205C76.5837 31.4486 77.3178 31.5098 78.0518 31.4487C80.6821 31.3263 83.2512 30.3476 85.331 28.7572C87.9613 26.6162 81.4773 25.087 80.0092 25.8822ZM72.7912 29.7971C71.8736 29.1854 70.7726 29.5524 69.855 29.9806C69.6715 30.1029 69.488 30.2252 69.4268 30.4088C69.3045 30.8369 69.855 31.1428 70.2832 31.2651C70.9561 31.4486 71.6901 31.6933 72.363 31.4487C73.0359 31.2651 73.7087 30.4088 72.7912 29.7971ZM39.2701 84.6664C38.5973 82.6478 37.068 81.6691 34.6824 82.8313C33.2755 83.5042 32.2967 84.7888 31.4404 86.0733C30.0946 88.1531 28.9324 90.4775 29.2383 92.8632C29.4218 94.6371 30.4617 96.2887 31.9297 97.3286C32.5414 97.7568 33.2755 98.0626 34.0095 98.0626C34.8659 98.0626 35.5999 97.5733 36.2728 97.0839C37.802 95.9217 38.9643 94.3313 40.1265 92.8632C40.7382 92.068 41.3499 91.2116 41.4722 90.294C41.7781 88.1531 39.8818 86.5015 39.2701 84.6664ZM285.173 146.448C284.561 146.693 283.95 146.999 283.644 147.549C283.399 147.977 283.277 148.467 283.277 148.956C283.154 149.996 283.093 150.975 283.093 152.014C283.093 153.115 283.215 154.339 284.072 155.134C285.234 156.174 287.069 155.807 288.537 155.379C289.394 155.134 290.311 154.889 290.862 154.217C291.29 153.727 291.412 153.115 291.535 152.504C291.902 150.485 293.003 147.427 291.779 146.326C290.434 145.225 287.314 145.592 285.173 146.448ZM200.208 224.99C199.902 225.296 199.596 225.602 199.413 225.969C198.923 227.009 199.413 228.354 200.514 228.783C201.064 229.027 201.676 229.027 202.288 228.966C207.365 228.905 212.809 228.721 216.846 225.785C217.336 225.418 217.825 224.929 217.764 224.378C217.641 223.644 216.785 223.338 216.051 223.216C210.974 222.299 204.245 221.198 200.208 224.99ZM104.171 217.16C99.7671 216.549 92.7937 215.753 92.7937 219.301C92.7937 220.647 99.0331 221.932 100.012 222.176C103.193 222.971 106.19 224.073 109.248 225.235C114.998 227.376 119.647 224.501 115.06 221.259C111.328 218.628 107.719 217.65 104.171 217.16Z" fill="#2A94F4"/>
</g>
</g>
<g opacity="0.51">
<path opacity="0.51" d="M215.502 172.995C214.095 170.304 217.337 167.429 220.335 166.879C223.332 166.328 226.696 166.756 229.021 164.86C232.202 162.352 232.018 156.908 235.505 154.889C238.319 153.299 242.05 154.828 244.986 153.543C248.656 151.953 249.696 146.815 253.366 145.102C256.241 143.695 260.034 145.286 261.502 148.099C262.97 150.913 262.297 154.583 260.279 157.091C258.688 158.988 256.303 160.394 255.324 162.658C253.795 166.267 256.241 170.61 254.773 174.28C252.143 181.009 239.664 178.99 237.462 185.902C236.973 187.432 237.156 189.083 237.034 190.735C236.667 195.506 233.303 199.666 229.143 202.051C224.984 204.437 220.09 205.232 215.319 205.599C213.361 205.721 211.282 205.782 209.569 204.865C207.917 204.009 206.816 202.479 205.899 200.828C200.149 190.49 197.763 176.91 215.502 172.995Z" fill="white"/>
</g>
<g opacity="0.51">
<path opacity="0.51" d="M122.34 163.637C124.297 160.456 120.627 156.663 117.018 155.746C113.409 154.828 109.311 155.012 106.558 152.504C102.949 149.139 103.622 142.472 99.5236 139.719C96.2204 137.517 91.5715 139.046 88.0237 137.211C83.6194 134.948 82.8854 128.525 78.6035 126.078C75.178 124.121 70.4068 125.65 68.327 129.014C66.2472 132.379 66.7366 136.905 68.9999 140.147C70.7738 142.655 73.5264 144.552 74.5663 147.427C76.1567 151.953 72.7312 157.091 74.1381 161.679C76.7684 170.182 92.2444 168.836 94.2018 177.522C94.63 179.48 94.263 181.437 94.263 183.456C94.263 189.328 97.9944 194.772 102.888 198.075C107.782 201.378 113.654 202.847 119.465 203.703C121.851 204.07 124.359 204.315 126.561 203.336C128.64 202.479 130.17 200.644 131.454 198.748C139.468 186.453 143.627 170.059 122.34 163.637Z" fill="white"/>
</g>
<path d="M250.307 16.5842L246.026 18.0522L244.19 12.7305C240.765 2.88212 229.938 -2.37849 220.089 1.04702C210.241 4.47253 204.981 15.2996 208.406 25.1479L210.241 30.4697L205.959 31.9378C202.595 33.1 200.821 36.7702 201.983 40.1345L214.034 74.9402C215.196 78.3045 218.927 80.1396 222.23 78.9774L266.517 63.6238C269.882 62.4615 271.717 58.7302 270.555 55.3658L258.504 20.5602C257.403 17.1959 253.733 15.3608 250.307 16.5842ZM216.542 22.273C214.645 16.89 217.52 10.9565 222.903 9.06027C228.286 7.16401 234.22 10.039 236.116 15.4831L237.951 20.8049L218.377 27.5947L216.542 22.273ZM242.233 54.0201L245.291 62.8897C245.414 63.2567 245.169 63.6238 244.802 63.8073L240.52 65.2753C240.214 65.3977 239.786 65.2142 239.664 64.8472L236.605 55.9775C233.302 55.8552 230.244 53.7754 229.081 50.4111C227.613 46.1292 229.877 41.4191 234.159 39.8899C238.44 38.4218 243.151 40.6851 244.68 44.967C245.842 48.3313 244.741 51.8792 242.233 54.0201Z" fill="white"/>
<path d="M204.368 188.9C208.711 187.065 212.565 183.578 215.807 180.275C224.493 171.283 229.876 159.6 232.751 147.488C235.32 136.539 235.871 125.283 235.381 114.089C235.32 113.172 233.852 113.11 233.913 114.089C235.137 139.23 230.121 169.998 207.671 185.291C206.387 186.147 205.102 187.004 203.695 187.615C202.778 187.982 203.512 189.267 204.368 188.9Z" fill="white"/>
<path d="M232.934 143.267C232.934 143.267 234.341 135.132 245.106 133.847C245.168 133.847 241.192 143.451 232.934 143.267Z" fill="white"/>
<path d="M229.447 155.256C229.447 155.256 232.75 147.671 243.516 148.956C243.455 148.956 237.399 157.397 229.447 155.256Z" fill="white"/>
<path d="M224.859 165.9C224.859 165.9 229.753 159.233 239.968 162.903C239.968 162.903 232.139 169.754 224.859 165.9Z" fill="white"/>
<path d="M234.586 130.605C234.586 130.605 235.993 122.592 246.575 121.368C246.575 121.368 242.722 130.85 234.586 130.605Z" fill="white"/>
<path d="M234.769 116.719C234.769 116.719 228.714 111.275 233.301 101.61C233.301 101.672 239.235 109.929 234.769 116.719Z" fill="white"/>
<path d="M234.769 124.977C234.769 124.977 226.756 123.509 225.594 112.927C225.655 112.866 235.075 116.842 234.769 124.977Z" fill="white"/>
<path d="M233.974 137.15C233.974 137.15 225.961 135.682 224.799 125.1C224.86 125.1 234.28 129.014 233.974 137.15Z" fill="white"/>
<path d="M231.895 148.588C231.895 148.588 224.004 146.57 223.637 135.926C223.637 135.865 232.751 140.453 231.895 148.588Z" fill="white"/>
<path d="M228.285 159.967C228.285 159.967 220.394 157.948 220.027 147.305C220.027 147.305 229.142 151.892 228.285 159.967Z" fill="white"/>
<path d="M122.524 185.841C118.181 184.006 114.328 180.52 111.086 177.216C102.4 168.224 97.0166 156.541 94.1416 144.429C91.5725 133.48 91.022 122.225 91.5113 111.031C91.5725 110.113 93.0406 110.052 92.9794 111.031C91.756 136.171 96.7719 166.94 119.221 182.232C120.506 183.089 121.79 183.945 123.197 184.557C124.115 184.924 123.381 186.208 122.524 185.841Z" fill="white"/>
<path d="M93.9567 140.208C93.9567 140.208 92.5498 132.073 81.7839 130.788C81.7227 130.788 85.6988 140.392 93.9567 140.208Z" fill="white"/>
<path d="M97.5046 152.197C97.5046 152.197 94.2014 144.612 83.4355 145.897C83.4355 145.897 89.4914 154.338 97.5046 152.197Z" fill="white"/>
<path d="M102.094 162.841C102.094 162.841 97.2001 156.174 86.9847 159.844C86.9236 159.844 94.7533 166.695 102.094 162.841Z" fill="white"/>
<path d="M92.3057 127.546C92.3057 127.546 90.8988 119.533 80.3164 118.31C80.3164 118.31 84.1701 127.791 92.3057 127.546Z" fill="white"/>
<path d="M92.1831 113.661C92.1831 113.661 98.2389 108.217 93.6512 98.5518C93.6512 98.6129 87.6565 106.871 92.1831 113.661Z" fill="white"/>
<path d="M92.1225 121.918C92.1225 121.918 100.136 120.45 101.298 109.868C101.298 109.807 91.8166 113.783 92.1225 121.918Z" fill="white"/>
<path d="M92.9174 134.091C92.9174 134.091 100.931 132.623 102.093 122.041C102.093 122.041 92.6116 125.956 92.9174 134.091Z" fill="white"/>
<path d="M94.9962 145.53C94.9962 145.53 102.887 143.512 103.254 132.868C103.254 132.807 94.1399 137.395 94.9962 145.53Z" fill="white"/>
<path d="M98.6056 156.908C98.6056 156.908 106.497 154.889 106.864 144.246C106.864 144.246 97.7492 148.833 98.6056 156.908Z" fill="white"/>
<path d="M199.964 207.128H130.659C123.502 207.128 117.752 201.317 117.752 194.222V33.5284C117.752 26.3716 123.563 20.6216 130.659 20.6216H199.903C207.06 20.6216 212.81 26.4327 212.81 33.5284V194.222C212.871 201.317 207.06 207.128 199.964 207.128Z" fill="#2A94F4"/>
<path d="M199.414 200.522H131.209C126.193 200.522 122.156 196.485 122.156 191.469V35.1191C122.156 30.1031 126.193 26.0659 131.209 26.0659H199.414C204.43 26.0659 208.467 30.1031 208.467 35.1191V191.469C208.467 196.485 204.43 200.522 199.414 200.522Z" fill="#F7F7F7"/>
<path d="M191.156 26.066H185.529C183.816 26.066 182.409 27.4729 182.409 29.1857V31.3878C182.409 33.1005 181.002 34.5074 179.289 34.5074H154.271C152.558 34.5074 151.151 33.1005 151.151 31.3878V29.1857C151.151 27.4729 149.744 26.066 148.032 26.066H132.066V24.4756H191.156V26.066Z" fill="#2A94F4"/>
<path opacity="0.17" d="M164.119 99.5921C171.011 99.5921 176.598 94.0052 176.598 87.1134C176.598 80.2216 171.011 74.6348 164.119 74.6348C157.227 74.6348 151.641 80.2216 151.641 87.1134C151.641 94.0052 157.227 99.5921 164.119 99.5921Z" fill="#2A94F4"/>
<path d="M168.952 84.2382C168.952 86.9297 166.811 89.0706 164.12 89.0706C161.428 89.0706 159.287 86.9297 159.287 84.2382C159.287 81.5467 161.428 79.4058 164.12 79.4058C166.811 79.4058 168.952 81.5467 168.952 84.2382ZM171.399 104.118V97.2062C171.399 93.3525 168.279 90.1716 164.364 90.1716H163.814C159.96 90.1716 156.779 93.2913 156.779 97.2062V104.118C156.779 105.219 157.636 106.076 158.737 106.076H169.441C170.543 106.076 171.399 105.219 171.399 104.118Z" fill="#2A94F4"/>
<path opacity="0.17" d="M194.031 113.845H134.207C131.454 113.845 129.252 111.642 129.252 108.89C129.252 106.137 131.454 103.935 134.207 103.935H194.031C196.783 103.935 198.986 106.137 198.986 108.89C198.986 111.581 196.783 113.845 194.031 113.845Z" fill="#2A94F4"/>
<path d="M191.951 110.174H136.287C135.552 110.174 135.002 109.624 135.002 108.89C135.002 108.156 135.552 107.605 136.287 107.605H191.951C192.685 107.605 193.236 108.156 193.236 108.89C193.236 109.562 192.685 110.174 191.951 110.174Z" fill="#2A94F4"/>
<path opacity="0.17" d="M194.091 131.584H134.267C131.515 131.584 129.312 129.382 129.312 126.629C129.312 123.876 131.515 121.674 134.267 121.674H194.091C196.844 121.674 199.046 123.876 199.046 126.629C199.046 129.382 196.783 131.584 194.091 131.584Z" fill="#2A94F4"/>
<path d="M135.796 128.036C135.062 128.036 134.512 127.485 134.512 126.751C134.512 126.017 135.062 125.467 135.796 125.467C136.53 125.467 137.081 126.017 137.081 126.751C137.081 127.485 136.469 128.036 135.796 128.036ZM140.935 126.751C140.935 126.017 140.384 125.467 139.65 125.467C138.916 125.467 138.365 126.017 138.365 126.751C138.365 127.485 138.916 128.036 139.65 128.036C140.323 128.036 140.935 127.485 140.935 126.751ZM144.727 126.751C144.727 126.017 144.177 125.467 143.443 125.467C142.708 125.467 142.158 126.017 142.158 126.751C142.158 127.485 142.708 128.036 143.443 128.036C144.177 128.036 144.727 127.485 144.727 126.751ZM148.581 126.751C148.581 126.017 148.03 125.467 147.296 125.467C146.562 125.467 146.012 126.017 146.012 126.751C146.012 127.485 146.562 128.036 147.296 128.036C148.03 128.036 148.581 127.485 148.581 126.751ZM152.434 126.751C152.434 126.017 151.884 125.467 151.15 125.467C150.416 125.467 149.865 126.017 149.865 126.751C149.865 127.485 150.416 128.036 151.15 128.036C151.884 128.036 152.434 127.485 152.434 126.751ZM156.288 126.751C156.288 126.017 155.738 125.467 155.004 125.467C154.27 125.467 153.719 126.017 153.719 126.751C153.719 127.485 154.27 128.036 155.004 128.036C155.676 128.036 156.288 127.485 156.288 126.751ZM160.142 126.751C160.142 126.017 159.591 125.467 158.857 125.467C158.123 125.467 157.573 126.017 157.573 126.751C157.573 127.485 158.123 128.036 158.857 128.036C159.53 128.036 160.142 127.485 160.142 126.751Z" fill="#2A94F4"/>
<path d="M82.7006 188.9C82.7006 188.9 81.416 195.996 81.1101 197.219C80.8655 198.198 80.1314 198.932 79.3974 199.666C79.1527 199.91 78.9692 200.4 78.8468 200.767C78.7245 201.073 78.7857 201.44 78.9692 201.746C82.2112 206.945 89.001 207.924 89.0622 207.495C89.1846 206.7 87.9 205.355 86.4319 204.804C84.9638 204.315 83.8628 202.969 83.4958 201.44C83.1899 200.216 83.1899 198.932 83.5569 197.708L85.1473 192.264L82.7006 188.9Z" fill="#B97A59"/>
<path d="M78.7246 189.695L80.315 196.852C80.8044 199.054 80.4985 201.317 79.4586 203.336C78.8469 204.437 79.3975 205.844 80.5597 206.272C84.4134 207.618 91.815 210.248 92.1208 209.942C93.8336 208.535 89.3682 206.15 86.065 203.703C83.8629 202.051 83.0065 194.222 82.823 188.288L79.2751 189.206C79.0305 189.206 78.7858 189.389 78.7246 189.695Z" fill="#B97A59"/>
<path d="M85.3316 205.721C86.922 206.272 88.6348 206.394 90.2252 206.639C90.4087 206.639 90.5922 206.761 90.7146 206.822C92.2438 207.985 93.039 209.208 92.1215 209.942C91.7545 210.248 83.0072 207.128 79.6428 205.966C78.9088 205.721 78.603 204.865 78.97 204.192L79.6428 202.969C81.4168 204.07 83.313 205.049 85.3316 205.721Z" fill="#0B4870"/>
<path d="M80.376 116.414C76.3388 117.82 73.8308 123.326 75.6659 128.464C76.7058 131.461 81.7829 141.799 86.7377 149.812C88.6339 152.871 88.8786 156.725 87.227 159.905C86.9824 160.395 86.7377 160.945 86.5542 161.496C85.759 164.187 83.6792 179.357 82.6393 189.45C83.1287 190.613 84.1685 192.081 85.2084 192.387C88.7563 183.272 94.1392 166.879 94.9956 164.004C95.485 162.413 95.9743 160.639 96.2802 158.927C98.727 153.788 92.977 129.137 91.2642 124.305C89.4292 119.227 84.352 115.007 80.376 116.414Z" fill="#0B4870"/>
<path d="M82.8844 87.8475C86.4654 87.8475 89.3684 84.0955 89.3684 79.4672C89.3684 74.8389 86.4654 71.0869 82.8844 71.0869C79.3034 71.0869 76.4004 74.8389 76.4004 79.4672C76.4004 84.0955 79.3034 87.8475 82.8844 87.8475Z" fill="#0B4870"/>
<path d="M81.3551 80.3234C81.2328 75.6745 77.5014 71.7597 72.8525 71.515C68.7542 71.2703 65.2063 73.7783 63.8606 77.3873C63.3712 78.6719 62.1478 79.4671 60.8021 79.4671C60.2515 79.4671 59.701 79.5283 59.0893 79.6506C55.725 80.3235 53.0335 83.1984 52.7277 86.6851C52.4218 89.8048 53.8899 92.5574 56.2143 94.1478C57.193 94.8207 57.8048 95.9217 57.9271 97.1451C58.7223 102.65 63.7382 106.749 69.4882 106.076C74.3818 105.525 78.3578 101.488 78.786 96.5334C79.0307 93.5361 77.9908 90.7223 76.1557 88.6425C79.2754 87.2356 81.4163 83.9936 81.3551 80.3234Z" fill="#0B4870"/>
<path d="M82.8848 68.3341C82.8848 68.3341 86.555 70.6586 86.0656 73.7171C86.0656 73.7171 88.023 72.3101 88.4512 67.6001C88.8183 64.2969 82.8848 68.3341 82.8848 68.3341Z" fill="#0B4870"/>
<path d="M88.8177 84.6663C90.7752 85.645 92.7326 86.4402 94.7512 86.9296C96.7698 87.4189 98.8496 87.4189 100.991 87.1131C103.193 86.8072 105.456 86.1956 107.903 85.7674C110.35 85.3392 112.919 85.2168 115.304 85.5838C115.732 85.645 116.038 86.0732 115.977 86.5014C115.916 86.8684 115.61 87.1743 115.243 87.1743C112.919 87.2966 110.778 87.7248 108.576 88.52C106.435 89.254 104.233 90.2327 101.786 90.9668C99.3389 91.7008 96.5863 92.0066 93.956 91.7008C91.3257 91.3949 88.8177 90.6609 86.4321 89.6822C85.0252 89.1317 84.2912 87.4801 84.8417 86.0732C85.3922 84.6663 87.0438 83.9323 88.4507 84.4828C88.5119 84.4828 88.573 84.544 88.6342 84.544L88.8177 84.6663Z" fill="#B97A59"/>
<path d="M86.9825 103.262C88.4506 98.858 91.3867 89.499 91.142 86.5017C90.9585 84.5442 89.3681 83.0762 87.4107 83.0762H74.6262C72.5464 83.0762 70.7725 84.7278 70.7113 86.8687C70.589 90.5389 72.3017 98.9192 73.2804 103.323H86.9825V103.262Z" fill="white"/>
<path d="M82.7628 189.756C82.9463 189.634 83.0687 189.389 83.0687 189.144C82.824 179.785 82.2123 167.857 82.0288 165.594C82.0288 165.349 81.9676 165.104 81.9065 164.799C83.9251 153.727 84.2309 129.993 84.4144 125.833C84.6591 120.389 81.3559 114.211 77.1352 113.966C72.8533 113.783 68.2656 118.187 66.9199 123.203C66.0023 126.506 69.489 144.123 73.2815 156.908C74.0767 159.599 74.1991 162.413 73.7709 165.166C73.465 167.062 73.4039 169.081 73.5262 170.549C73.7097 172.812 76.2177 181.926 78.6033 189.817C78.6645 190.062 78.848 190.245 79.0926 190.245C80.3772 190.551 81.6006 190.49 82.7628 189.756Z" fill="#0B4870"/>
<path d="M71.8746 108.829C72.5475 106.994 72.731 104.975 72.4252 103.079C71.8135 98.5521 70.6513 90.1107 70.7736 86.5017C70.8348 84.5442 72.4252 83.0762 74.3214 83.0762H76.2177C76.9517 84.7278 78.481 86.0123 80.8054 86.0123C83.1911 86.0123 84.6591 84.7278 85.3932 83.0762H87.1671C85.2708 87.1746 85.9437 92.6187 89.2469 95.7995C88.6352 98.0016 88.0846 100.143 87.7176 101.916C87.1671 104.302 87.4118 106.81 88.3905 109.073C90.0421 112.988 91.3266 119.228 90.8984 121.736C77.5023 125.528 68.2656 118.799 68.2656 118.799L71.8746 108.829Z" fill="white"/>
<path d="M82.8847 83.9327L77.1348 83.321L78.9699 77.0205L82.7012 77.4487L82.8847 83.9327Z" fill="#B97A59"/>
<path d="M82.7018 77.4483L78.9704 76.959L78.4199 78.9164C79.2763 79.834 80.3162 81.9137 81.6619 81.9137C82.0901 81.9137 82.4571 81.7914 82.8241 81.5467L82.7018 77.4483Z" fill="#AA6B4F"/>
<path d="M82.8232 80.5068C81.5387 80.5068 80.1929 79.8951 78.2967 78.2435C77.1956 77.3259 76.4004 75.6744 76.4004 74.5121V68.334H85.8817C85.8817 68.334 86.6158 71.6371 85.8817 74.8792C85.3924 77.3259 83.802 80.5068 82.8232 80.5068Z" fill="#B97A59"/>
<path d="M77.9909 73.3502C77.9909 74.5736 77.4404 75.5523 76.7064 75.5523C75.9723 75.5523 75.2383 73.9619 75.2383 72.7997C75.2383 71.5763 76.0335 71.2093 76.7064 71.2093C77.4404 71.1481 77.9909 72.1268 77.9909 73.3502Z" fill="#B97A59"/>
<path d="M75.2389 69.0681C75.2389 67.1719 76.8293 65.5815 78.7256 65.5815H81.9064C82.824 65.5815 83.7415 65.3368 84.4756 64.9086C85.5766 64.2969 87.0447 64.4804 87.7787 65.5203C88.6351 66.6213 89.0021 68.1506 86.8612 69.5575C85.8213 70.2304 84.292 69.4963 83.2522 69.8022C83.191 69.8022 83.1298 69.8022 83.0686 69.8022H80.2548C79.2761 69.8022 78.5421 70.5974 78.4809 71.5761C78.4809 72.1878 77.9304 72.6772 77.3187 72.6772H77.1963L76.7682 71.2091L75.1777 73.35V69.0681H75.2389Z" fill="#0B4870"/>
<path d="M118.668 84.9108C118.668 84.9108 117.139 87.9082 116.099 87.7247C115.059 87.5411 114.325 87.2965 114.509 85.7061C114.692 84.1768 115.671 82.097 116.466 80.996C117.261 79.8949 119.463 78.6104 119.83 78.6104C120.993 78.6715 119.28 80.5066 118.485 81.4853C117.689 82.4029 116.894 83.5651 117.445 83.8098C117.995 84.0545 119.402 82.1582 120.136 82.2194C120.87 82.2805 118.668 84.9108 118.668 84.9108Z" fill="#B97A59"/>
<path d="M85.208 68.2117C84.9022 69.6186 85.3304 70.4138 80.7426 72.6159C76.0937 74.8181 74.6868 73.9005 73.2188 76.2249C73.2188 76.2249 73.8304 72.3101 76.3996 70.9644C78.9687 69.6186 83.3729 68.7622 84.7799 65.6426C84.7799 65.6426 85.3915 67.2942 85.208 68.2117Z" fill="#0B4870"/>
<path d="M74.6258 88.8257C74.3811 89.0092 74.1976 89.1315 74.0141 89.3151C73.8306 89.4374 73.6471 89.5597 73.4636 89.6821C73.0966 89.9267 72.7296 90.1714 72.3625 90.3549C71.6285 90.7831 70.8333 91.1501 70.0381 91.5172C68.4477 92.19 66.7349 92.6182 65.0222 92.924C61.5355 93.4134 57.9876 92.924 54.8068 91.7007C53.2164 91.089 51.7483 90.2938 50.3414 89.3762C48.9345 88.4587 47.6499 87.4188 46.4265 86.3177C44.0409 84.1156 41.9611 81.5465 40.1872 78.9162C40.0037 78.6104 40.0649 78.2433 40.3707 78.0598C40.6154 77.8763 40.9824 77.9375 41.1659 78.1822C43.3069 80.5066 45.509 82.6475 47.9558 84.4826C50.4026 86.2566 53.0329 87.7858 55.8467 88.581C57.2536 88.948 58.6605 89.2539 60.0674 89.3151C61.4743 89.3762 62.8812 89.2539 64.2881 89.0092C65.695 88.7645 67.0408 88.2752 68.3253 87.7246C68.937 87.4188 69.6099 87.1129 70.2216 86.7459C70.5274 86.5624 70.8333 86.3789 71.078 86.1954C71.2003 86.073 71.3838 86.0119 71.5062 85.8895L71.8732 85.6449L71.9955 85.5225C72.9131 84.7885 74.2588 84.972 74.9929 85.8895C75.6657 86.8071 75.5434 88.0917 74.6258 88.8257Z" fill="#B97A59"/>
<path d="M84.2916 68.5174C84.2916 68.5174 84.4751 73.2886 88.6346 75.5519C88.6346 75.5519 86.7995 71.9429 86.9219 69.6184C87.0442 67.2328 84.0469 66.8658 84.2916 68.5174Z" fill="#0B4870"/>
<path d="M77.8075 203.703C77.5016 203.458 77.3793 202.969 77.5628 202.602C77.7463 202.296 78.1745 201.5 78.4803 200.889C78.6027 200.644 78.9697 200.583 79.1532 200.828C81.233 203.58 84.108 205.415 87.35 205.171C88.5122 205.66 89.4909 207.067 89.3686 207.74C89.3686 207.862 87.9617 208.229 86.3101 207.679C79.092 205.293 77.8075 203.703 77.8075 203.703Z" fill="#0B4870"/>
<path d="M41.4113 76.1026C41.4113 76.1026 43.4299 78.7941 42.8182 79.7116C42.2065 80.6292 41.5948 81.1186 40.3103 80.2622C38.9645 79.4058 37.5576 77.6319 36.8847 76.3473C36.2119 75.0627 36.0895 72.5547 36.2119 72.2489C36.8236 71.209 37.7411 73.5947 38.2305 74.7569C38.7198 75.9191 39.3927 77.1425 39.8821 76.7143C40.3714 76.3473 39.2092 74.2063 39.6374 73.5946C40.0656 72.9218 41.4113 76.1026 41.4113 76.1026Z" fill="#B97A59"/>
<path d="M311.66 224.99H9.48133C4.22072 224.99 0 220.769 0 215.509C0 210.248 4.22072 206.027 9.48133 206.027H311.66C316.921 206.027 321.142 210.248 321.142 215.509C321.142 220.769 316.921 224.99 311.66 224.99Z" fill="#D3D3D3"/>
<path d="M75.1172 43.866L71.1411 39.5229L22.45 84.0546C19.0856 81.9137 14.8037 81.3632 10.7665 82.8924C4.03783 85.4615 0.673481 92.9854 3.30378 99.7141C5.93409 106.443 13.3968 109.807 20.1255 107.177C26.8542 104.608 30.2185 97.0838 27.5882 90.3551C27.4047 89.8658 27.16 89.3764 26.9153 88.887L63.8008 54.4484L68.205 58.7915L72.6092 54.3261L69.1225 50.8394L70.4683 49.249L74.0773 52.491L77.1358 49.0043L73.3432 45.5176L75.1172 43.866ZM18.4739 102.895C14.1309 104.547 9.17608 102.406 7.5245 98.0014C5.87291 93.6583 8.01386 88.7035 12.4181 87.0519C16.7611 85.4004 21.7159 87.5413 23.3675 91.9455C25.0191 96.3498 22.817 101.243 18.4739 102.895Z" fill="white"/>
</svg>
