<svg width="25" height="25" viewBox="0 0 25 25" fill="none" xmlns="http://www.w3.org/2000/svg">
<path fill-rule="evenodd" clip-rule="evenodd" d="M8 9.125C8 10.3185 8.4741 11.4631 9.31802 12.307C10.1619 13.1509 11.3065 13.625 12.5 13.625C13.6935 13.625 14.8381 13.1509 15.682 12.307C16.5259 11.4631 17 10.3185 17 9.125C17 7.93153 16.5259 6.78693 15.682 5.94302C14.8381 5.09911 13.6935 4.625 12.5 4.625C11.3065 4.625 10.1619 5.09911 9.31802 5.94302C8.4741 6.78693 8 7.93153 8 9.125ZM10.25 9.125C10.25 9.72174 10.4871 10.294 10.909 10.716C11.331 11.1379 11.9033 11.375 12.5 11.375C13.0967 11.375 13.669 11.1379 14.091 10.716C14.5129 10.294 14.75 9.72174 14.75 9.125C14.75 8.52826 14.5129 7.95597 14.091 7.53401C13.669 7.11205 13.0967 6.875 12.5 6.875C11.9033 6.875 11.331 7.11205 10.909 7.53401C10.4871 7.95597 10.25 8.52826 10.25 9.125Z" fill="#282828"/>
<path fill-rule="evenodd" clip-rule="evenodd" d="M12.5 0.125C19.3344 0.125 24.875 5.66562 24.875 12.5C24.875 19.3344 19.3344 24.875 12.5 24.875C5.66563 24.875 0.125002 19.3344 0.125002 12.5C0.125002 5.66562 5.66563 0.125 12.5 0.125ZM22.625 12.5C22.625 14.8512 21.8229 17.0157 20.4785 18.7347C19.5344 17.4949 18.3164 16.4901 16.9196 15.7988C15.5229 15.1076 13.9853 14.7486 12.4269 14.75C10.8886 14.7485 9.37035 15.0982 7.98771 15.7724C6.60506 16.4465 5.39454 17.4274 4.44838 18.6402C3.47362 17.3618 2.81731 15.8696 2.53375 14.2872C2.25018 12.7047 2.34752 11.0775 2.8177 9.54011C3.28787 8.00274 4.11738 6.59943 5.23758 5.44629C6.35778 4.29315 7.73647 3.42334 9.25957 2.90882C10.7827 2.3943 12.4064 2.24987 13.9964 2.48747C15.5864 2.72507 17.097 3.33788 18.4031 4.27518C19.7093 5.21249 20.7735 6.44735 21.5076 7.87759C22.2418 9.30784 22.6248 10.8923 22.625 12.5ZM12.5 22.625C14.8243 22.6285 17.0785 21.8289 18.881 20.3615C18.1555 19.3228 17.1897 18.4748 16.066 17.8895C14.9423 17.3043 13.6939 16.9991 12.4269 17C11.1757 16.999 9.94233 17.2965 8.82921 17.8678C7.71609 18.4392 6.75534 19.2678 6.02675 20.285C7.84329 21.8 10.1346 22.6283 12.5 22.625Z" fill="#282828"/>
</svg>
