<svg width="23" height="21" viewBox="0 0 23 21" fill="none" xmlns="http://www.w3.org/2000/svg">
<path d="M1.42769 9.18179C0.612946 9.18179 0.272808 8.13501 0.934624 7.65249L11.0043 0.327685C11.1481 0.222327 11.3217 0.165527 11.5 0.165527C11.6782 0.165527 11.8519 0.222327 11.9957 0.327685L22.0653 7.65249C22.7271 8.13237 22.387 9.18179 21.5696 9.18179H19.9375L19.9375 19.0431H21.8359C21.9519 19.0431 22.0468 19.138 22.0468 19.2541V20.6251C22.0468 20.7412 21.9519 20.8361 21.8359 20.8361L1.16402 20.8361C1.048 20.8361 0.953081 20.7412 0.953081 20.6251V19.2541C0.953081 19.138 1.048 19.0431 1.16402 19.0431H3.06246L3.06246 9.18179H1.42769ZM14.9541 19.0431H18.039L18.039 9.18179L14.9541 9.18179L14.9541 19.0431ZM9.97066 19.0431H13.0556V9.18179H9.97066V19.0431ZM4.9609 19.0431L8.07222 19.0431V9.18179H4.9609L4.9609 19.0431Z" fill="#282828"/>
</svg>
